<svg width="88" height="88" viewBox="0 0 88 88" fill="none" xmlns="http://www.w3.org/2000/svg">
<path d="M44.4238 75.8281L42.4238 43.8281L44.4238 11.8281L46.4238 43.8281L44.4238 75.8281Z" fill="#560300"/>
<path d="M76.4238 43.8281L44.4238 45.8281L12.4238 43.8281L44.4238 41.8281L76.4238 43.8281Z" fill="#560300"/>
<circle cx="44.4238" cy="43.8281" r="8.5" stroke="#560300"/>
<path d="M44.9038 9.48413C44.0398 9.48413 43.2665 9.29746 42.5838 8.92413C41.9118 8.55079 41.3838 8.03879 40.9998 7.38813C40.6158 6.73746 40.4238 5.99079 40.4238 5.14813C40.4238 4.30546 40.6158 3.55879 40.9998 2.90812C41.3838 2.25746 41.9118 1.75079 42.5838 1.38813C43.2665 1.01479 44.0398 0.828125 44.9038 0.828125C45.6718 0.828125 46.3545 0.982792 46.9518 1.29212C47.5598 1.59079 48.0292 2.03879 48.3598 2.63613L47.1918 3.38812C46.9145 2.97212 46.5732 2.66813 46.1678 2.47613C45.7732 2.27346 45.3465 2.17212 44.8878 2.17212C44.3332 2.17212 43.8372 2.29479 43.3998 2.54012C42.9625 2.78546 42.6158 3.13213 42.3598 3.58013C42.1038 4.01746 41.9758 4.54013 41.9758 5.14813C41.9758 5.75613 42.1038 6.28413 42.3598 6.73213C42.6158 7.18013 42.9625 7.52679 43.3998 7.77213C43.8372 8.01746 44.3332 8.14013 44.8878 8.14013C45.3465 8.14013 45.7732 8.04413 46.1678 7.85213C46.5732 7.64946 46.9145 7.34013 47.1918 6.92413L48.3598 7.66013C48.0292 8.24679 47.5598 8.70013 46.9518 9.02013C46.3545 9.32946 45.6718 9.48413 44.9038 9.48413Z" fill="black"/>
<path d="M78.4238 47.3081V38.8281H82.3598C83.3518 38.8281 84.1305 39.0201 84.6958 39.4041C85.2718 39.7775 85.5598 40.3108 85.5598 41.0041C85.5598 41.6975 85.2878 42.2361 84.7438 42.6201C84.2105 42.9935 83.5012 43.1801 82.6158 43.1801L82.8558 42.7641C83.8692 42.7641 84.6212 42.9508 85.1118 43.3241C85.6025 43.6975 85.8478 44.2468 85.8478 44.9721C85.8478 45.7081 85.5705 46.2841 85.0158 46.7001C84.4718 47.1055 83.6345 47.3081 82.5038 47.3081H78.4238ZM79.9278 46.1241H82.3918C83.0318 46.1241 83.5118 46.0281 83.8318 45.8361C84.1518 45.6335 84.3118 45.3135 84.3118 44.8761C84.3118 44.4281 84.1625 44.1028 83.8638 43.9001C83.5758 43.6868 83.1172 43.5801 82.4878 43.5801H79.9278V46.1241ZM79.9278 42.4761H82.2318C82.8185 42.4761 83.2612 42.3695 83.5598 42.1561C83.8692 41.9321 84.0238 41.6228 84.0238 41.2281C84.0238 40.8228 83.8692 40.5188 83.5598 40.3161C83.2612 40.1135 82.8185 40.0121 82.2318 40.0121H79.9278V42.4761Z" fill="black"/>
<path d="M38.4238 87.3881V78.9081H39.9598V82.3801H42.5198V83.8041H39.9598V87.3881H38.4238ZM45.9278 87.4841C45.0958 87.4841 44.3545 87.2975 43.7038 86.9241C43.0638 86.5508 42.5572 86.0388 42.1838 85.3881C41.8105 84.7268 41.6238 83.9801 41.6238 83.1481C41.6238 82.3055 41.8105 81.5588 42.1838 80.9081C42.5572 80.2468 43.0638 79.7348 43.7038 79.3721C44.3545 79.0095 45.0958 78.8281 45.9278 78.8281C46.7492 78.8281 47.4852 79.0095 48.1358 79.3721C48.7865 79.7348 49.2985 80.2468 49.6718 80.9081C50.0452 81.5588 50.2318 82.3055 50.2318 83.1481C50.2318 83.9908 50.0452 84.7375 49.6718 85.3881C49.2985 86.0388 48.7865 86.5508 48.1358 86.9241C47.4852 87.2975 46.7492 87.4841 45.9278 87.4841ZM45.9278 86.1401C46.4612 86.1401 46.9358 86.0175 47.3518 85.7721C47.7678 85.5161 48.0985 85.1695 48.3438 84.7321C48.5892 84.2841 48.7118 83.7561 48.7118 83.1481C48.7118 82.5401 48.5892 82.0175 48.3438 81.5801C48.0985 81.1321 47.7678 80.7855 47.3518 80.5401C46.9358 80.2948 46.4612 80.1721 45.9278 80.1721C45.4052 80.1721 44.9305 80.2948 44.5038 80.5401C44.0878 80.7855 43.7572 81.1321 43.5118 81.5801C43.2665 82.0175 43.1438 82.5401 43.1438 83.1481C43.1438 83.7561 43.2665 84.2841 43.5118 84.7321C43.7572 85.1695 44.0878 85.5161 44.5038 85.7721C44.9305 86.0175 45.4052 86.1401 45.9278 86.1401Z" fill="black"/>
<path d="M5.94383 48.5353C5.30383 48.5353 4.67449 48.4553 4.05583 48.2953C3.44783 48.1247 2.90383 47.8847 2.42383 47.5753L2.88783 46.4073C3.29316 46.6633 3.75716 46.866 4.27983 47.0153C4.8025 47.154 5.33049 47.2233 5.86383 47.2233C6.3545 47.2233 6.77583 47.1647 7.12783 47.0473C7.4905 46.93 7.76783 46.77 7.95983 46.5673C8.15183 46.354 8.24783 46.1087 8.24783 45.8313C8.24783 45.4367 8.07183 45.1327 7.71983 44.9193C7.36783 44.706 6.87716 44.5993 6.24783 44.5993H4.71183V43.4953H6.15183C6.52516 43.4953 6.85049 43.4527 7.12783 43.3673C7.40516 43.282 7.61849 43.154 7.76783 42.9833C7.92783 42.802 8.00783 42.594 8.00783 42.3593C8.00783 42.1033 7.91716 41.8847 7.73583 41.7033C7.5545 41.522 7.2985 41.3833 6.96783 41.2873C6.64783 41.1913 6.26916 41.1433 5.83183 41.1433C5.40516 41.154 4.96783 41.2127 4.51983 41.3193C4.08249 41.426 3.63449 41.5913 3.17583 41.8153L2.75983 40.6153C3.27183 40.37 3.77316 40.1833 4.26383 40.0553C4.76516 39.9167 5.26116 39.842 5.75183 39.8313C6.48783 39.81 7.14383 39.8953 7.71983 40.0873C8.29583 40.2687 8.74916 40.5353 9.07983 40.8873C9.42116 41.2393 9.59183 41.6553 9.59183 42.1353C9.59183 42.5407 9.46383 42.9033 9.20783 43.2233C8.95183 43.5327 8.6105 43.778 8.18383 43.9593C7.75716 44.1407 7.2665 44.2313 6.71183 44.2313L6.77583 43.8633C7.72516 43.8633 8.47183 44.05 9.01583 44.4233C9.55983 44.7967 9.83183 45.3033 9.83183 45.9433C9.83183 46.4553 9.66116 46.9087 9.31983 47.3033C8.9785 47.6873 8.51449 47.9913 7.92783 48.2153C7.35183 48.4287 6.6905 48.5353 5.94383 48.5353Z" fill="black"/>
</svg>
