<svg width="20" height="20" viewBox="0 0 20 20" fill="none" xmlns="http://www.w3.org/2000/svg">
<path d="M16.6671 11.0913L11.3559 16.4458C11.0037 16.8007 10.5262 17 10.0283 17C9.53039 17 9.05286 16.8007 8.70073 16.4458L3.38952 11.0923C2.95047 10.6536 2.60171 10.1318 2.36326 9.55692C2.12481 8.982 2.00136 8.36528 2.00001 7.74215C1.99866 7.11902 2.11942 6.50176 2.35537 5.9258C2.59132 5.34984 2.93781 4.82653 3.37495 4.38591C3.81209 3.94529 4.33126 3.59604 4.90266 3.35821C5.47407 3.12037 6.08645 2.99865 6.70465 3.00001C7.32285 3.00138 7.9347 3.12581 8.50507 3.36616C9.07543 3.60651 9.59308 3.95805 10.0283 4.40059C10.9123 3.53172 12.1003 3.04888 13.335 3.05668C14.5697 3.06447 15.7517 3.56228 16.6248 4.44226C17.498 5.32223 17.992 6.51352 17.9999 7.75806C18.0078 9.00259 17.529 10.2002 16.6671 11.0913Z" stroke="#560300" stroke-linecap="round" stroke-linejoin="round"/>
</svg>
