<svg width="20" height="20" viewBox="0 0 20 20" fill="none" xmlns="http://www.w3.org/2000/svg">
<path d="M11.668 2.5V5.83333C11.668 6.05435 11.7558 6.26631 11.912 6.42259C12.0683 6.57887 12.2803 6.66667 12.5013 6.66667H15.8346" stroke="#560300" stroke-linecap="round" stroke-linejoin="round"/>
<path d="M4.16797 10V4.16667C4.16797 3.72464 4.34356 3.30072 4.65612 2.98816C4.96868 2.67559 5.39261 2.5 5.83464 2.5H11.668L15.8346 6.66667V10" stroke="#560300" stroke-linecap="round" stroke-linejoin="round"/>
<path d="M4.16797 15H5.41797C5.74949 15 6.06743 14.8683 6.30185 14.6339C6.53627 14.3995 6.66797 14.0815 6.66797 13.75C6.66797 13.4185 6.53627 13.1005 6.30185 12.8661C6.06743 12.6317 5.74949 12.5 5.41797 12.5H4.16797V17.5" stroke="#560300" stroke-linecap="round" stroke-linejoin="round"/>
<path d="M14.168 15H15.8346" stroke="#560300" stroke-linecap="round" stroke-linejoin="round"/>
<path d="M16.668 12.5H14.168V17.5" stroke="#560300" stroke-linecap="round" stroke-linejoin="round"/>
<path d="M9.16797 12.5V17.5H10.0013C10.4433 17.5 10.8673 17.3244 11.1798 17.0118C11.4924 16.6993 11.668 16.2754 11.668 15.8333V14.1667C11.668 13.7246 11.4924 13.3007 11.1798 12.9882C10.8673 12.6756 10.4433 12.5 10.0013 12.5H9.16797Z" stroke="#560300" stroke-linecap="round" stroke-linejoin="round"/>
</svg>
